<svg width="120" height="56" viewBox="0 0 120 56" fill="none" xmlns="http://www.w3.org/2000/svg">
  <rect width="120" height="56" rx="14" fill="#005CA8"/>
  <circle cx="24" cy="28" r="13" fill="white"/>
  <path d="M24 18L26.6 24H33L27.8 27.8L29.8 34L24 30.2L18.2 34L20.2 27.8L15 24H21.4L24 18Z" fill="#005CA8"/>
  <path d="M46 20H59.1C66.4 20 70.8 24.2 70.8 31.3C70.8 38.5 66.4 42.7 59.1 42.7H53.5V50H46V20ZM58.3 36.7C62 36.7 64 34.8 64 31.3C64 27.8 62 26 58.3 26H53.5V36.7H58.3Z" fill="white"/>
  <path d="M74.5 20H97.4V26.2H82V31.6H95.7V37.5H82V43.8H97.8V50H74.5V20Z" fill="white"/>
  <path d="M101.4 20H112.3C119.7 20 124.3 23.8 124.3 30.8C124.3 35.3 122.1 38.4 118.4 40L125 51H116.8L111.4 41.5H108.7V51H101.4V20ZM111.5 35.6C114.8 35.6 116.7 34 116.7 31C116.7 27.9 114.8 26.5 111.5 26.5H108.7V35.6H111.5Z" fill="white"/>
</svg>
