<svg width="120" height="56" viewBox="0 0 120 56" fill="none" xmlns="http://www.w3.org/2000/svg">
  <rect width="120" height="56" rx="14" fill="#F36F21"/>
  <path d="M18 18H44V38H18V18Z" fill="white"/>
  <path d="M22 22H30.5C35.1944 22 38 24.5914 38 28.6C38 32.7221 35.1944 35.4 30.5 35.4H26.5V42H22V22ZM29.8 31.8C32.4 31.8 33.8 30.5 33.8 28.6C33.8 26.6 32.4 25.5 29.8 25.5H26.5V31.8H29.8Z" fill="#F36F21"/>
  <path d="M49 22H57.2L67 35.4V22H73.8V48H67.2L56.8 33.8V48H49V22Z" fill="white"/>
  <path d="M77.4 22H85.2V48H77.4V22Z" fill="white"/>
  <path d="M90 22H110V28.2H97.5V32H108.6V37.8H97.5V41.8H110.6V48H90V22Z" fill="white"/>
</svg>
