<svg width="120" height="56" viewBox="0 0 120 56" fill="none" xmlns="http://www.w3.org/2000/svg">
  <rect width="120" height="56" rx="14" fill="#00529C"/>
  <rect x="12" y="12" width="30" height="32" rx="8" fill="white"/>
  <path d="M22 20H30C33.3137 20 36 22.6863 36 26C36 29.3137 33.3137 32 30 32H22V20Z" stroke="#00529C" stroke-width="3"/>
  <path d="M22 32H31C34.3137 32 37 34.6863 37 38V38H22V32Z" stroke="#00529C" stroke-width="3"/>
  <path d="M52 20H62.4C69.6 20 73.4 23.1 73.4 28.2C73.4 31.5 71.5 33.8 68.2 35V35.2C72.2 36 74.6 38.8 74.6 42.6C74.6 48.1 70.1 51 62.6 51H52V20ZM61.7 32.3C64.8 32.3 66.3 31.2 66.3 29.1C66.3 26.8 64.7 25.8 61.7 25.8H59.3V32.3H61.7ZM62.3 45.2C65.8 45.2 67.5 44 67.5 41.7C67.5 39.5 65.8 38.2 62.3 38.2H59.3V45.2H62.3Z" fill="white"/>
  <path d="M78.5 20H85.8V51H78.5V20Z" fill="white"/>
  <path d="M90.8 20H101.7C109.1 20 113.7 23.8 113.7 30.8C113.7 35.3 111.5 38.4 107.8 40L114.4 51H106.2L100.8 41.5H98.1V51H90.8V20ZM100.9 35.6C104.2 35.6 106.1 34 106.1 31C106.1 27.9 104.2 26.5 100.9 26.5H98.1V35.6H100.9Z" fill="white"/>
</svg>
