<svg width="120" height="56" viewBox="0 0 120 56" fill="none" xmlns="http://www.w3.org/2000/svg">
  <rect width="120" height="56" rx="14" fill="#003D79"/>
  <path d="M14 22C19 16 28.4 14 36 17.2C41.2 19.4 44.7 23.8 46 29.2C41 26.8 36 25.8 29.8 25.8C24.1 25.8 19.1 26.8 14 29.2C14.6 26.5 15.8 24 18 22.1L14 22Z" fill="#FDB913"/>
  <path d="M15 30.6C20.2 28.5 24.8 27.7 30.2 27.7C35.9 27.7 40.5 28.6 46.6 31.3C46.6 35.4 44.5 39.3 41.1 41.8C36.5 45.1 29.8 46.1 24.5 44.1C19.4 42.3 15.8 38.6 15 30.6Z" fill="#FDB913"/>
  <path d="M52 20H60.3L66.4 35.2L72.6 20H80.8V46H74.2V31.4L68.8 45H64L58.6 31.4V46H52V20Z" fill="white"/>
  <path d="M85 20H92.2L102 33.4V20H109V46H102.4L92 31.8V46H85V20Z" fill="white"/>
</svg>
